<svg xmlns="http://www.w3.org/2000/svg" viewBox="0 0 1200 420" width="1200" height="420" preserveAspectRatio="xMidYMid slice"><defs><linearGradient id="s" x1="0" y1="0" x2="0" y2="1"><stop offset="0" stop-color="#4a2416"/><stop offset="1" stop-color="#e08a49"/></linearGradient></defs><rect width="1200" height="420" fill="url(#s)"/><circle cx="167" cy="111" r="32" fill="#ffe0ab" opacity=".55"/><polygon points="0,420 0,280 86,286 171,287 257,287 343,278 429,285 514,282 600,284 686,283 771,282 857,282 943,281 1029,265 1114,263 1200,274 1200,420" fill="#a8542a"/><polygon points="0,420 0,343 86,342 171,335 257,331 343,329 429,320 514,330 600,333 686,334 771,327 857,323 943,322 1029,315 1114,315 1200,316 1200,420" fill="#70351c"/><g fill="#3a1a0f"><rect x="84" y="224" width="22" height="202" rx="11"/><rect x="32" y="301" width="18" height="69" rx="9"/><rect x="32" y="301" width="56" height="18" rx="9"/><rect x="125" y="275" width="18" height="85" rx="9"/><rect x="97" y="275" width="48" height="18" rx="9"/></g><g fill="#3a1a0f"><rect x="255" y="294" width="15" height="132" rx="7"/><rect x="220" y="344" width="12" height="45" rx="6"/><rect x="220" y="344" width="37" height="12" rx="6"/><rect x="281" y="327" width="12" height="56" rx="6"/><rect x="264" y="327" width="32" height="12" rx="6"/></g><g fill="#3a1a0f"><rect x="520" y="305" width="13" height="121" rx="7"/><rect x="488" y="351" width="11" height="41" rx="5"/><rect x="488" y="351" width="34" height="11" rx="5"/><rect x="544" y="335" width="11" height="51" rx="5"/><rect x="528" y="335" width="29" height="11" rx="5"/></g><g fill="#3a1a0f"><rect x="698" y="255" width="19" height="171" rx="9"/><rect x="654" y="320" width="15" height="58" rx="8"/><rect x="654" y="320" width="48" height="15" rx="8"/><rect x="732" y="298" width="15" height="72" rx="8"/><rect x="710" y="298" width="41" height="15" rx="8"/></g><g fill="#3a1a0f"><rect x="929" y="286" width="15" height="140" rx="8"/><rect x="893" y="339" width="12" height="47" rx="6"/><rect x="893" y="339" width="39" height="12" rx="6"/><rect x="957" y="321" width="12" height="59" rx="6"/><rect x="938" y="321" width="33" height="12" rx="6"/></g><g fill="#3a1a0f"><rect x="1157" y="242" width="20" height="184" rx="10"/><rect x="1109" y="312" width="16" height="63" rx="8"/><rect x="1109" y="312" width="52" height="16" rx="8"/><rect x="1193" y="288" width="16" height="77" rx="8"/><rect x="1169" y="288" width="44" height="16" rx="8"/></g><defs><linearGradient id="v" x1="0" y1="0" x2="0" y2="1"><stop offset="0" stop-color="#000" stop-opacity="0"/><stop offset="1" stop-color="#000" stop-opacity=".55"/></linearGradient></defs><rect width="1200" height="420" fill="url(#v)"/></svg>