<svg xmlns="http://www.w3.org/2000/svg" viewBox="0 0 1200 420" width="1200" height="420" preserveAspectRatio="xMidYMid slice"><defs><linearGradient id="s" x1="0" y1="0" x2="0" y2="1"><stop offset="0" stop-color="#243447"/><stop offset="1" stop-color="#7d90a3"/></linearGradient></defs><rect width="1200" height="420" fill="url(#s)"/><circle cx="295" cy="115" r="37" fill="#ffe6c2" opacity=".55"/><polygon points="0,420 0,213 150,225 300,256 450,278 600,254 750,265 900,274 1050,274 1200,276 1200,420" fill="#4a5a6b"/><polygon points="0,420 0,304 200,301 400,327 600,335 800,323 1000,312 1200,312 1200,420" fill="#33404d"/><polygon points="0,420 0,357 86,360 171,366 257,364 343,373 429,383 514,384 600,383 686,375 771,365 857,375 943,371 1029,365 1114,373 1200,377 1200,420" fill="#1f2831"/><defs><linearGradient id="v" x1="0" y1="0" x2="0" y2="1"><stop offset="0" stop-color="#000" stop-opacity="0"/><stop offset="1" stop-color="#000" stop-opacity=".55"/></linearGradient></defs><rect width="1200" height="420" fill="url(#v)"/></svg>